<svg xmlns="http://www.w3.org/2000/svg" preserveAspectRatio="xMidYMid" width="56" height="67" viewBox="0 0 56 67">
  <path d="M28.763,66.902 C28.515,66.988 28.257,67.031 27.999,67.031 C27.741,67.031 27.483,66.988 27.235,66.902 C-0.687,57.169 -0.249,34.105 0.070,17.265 C0.105,15.455 0.137,13.745 0.137,12.091 C0.137,10.795 1.182,9.745 2.470,9.745 C12.447,9.745 20.042,6.861 26.373,0.671 C27.278,-0.215 28.720,-0.215 29.625,0.671 C35.957,6.861 43.553,9.745 53.530,9.745 C54.819,9.745 55.863,10.795 55.863,12.091 C55.863,13.745 55.896,15.454 55.930,17.264 C56.250,34.104 56.687,57.168 28.763,66.902 ZM51.265,17.353 C51.246,16.337 51.227,15.354 51.214,14.388 C41.870,13.992 34.396,11.144 27.999,5.541 C21.603,11.144 14.131,13.992 4.787,14.388 C4.774,15.354 4.755,16.339 4.736,17.354 C4.414,34.283 4.052,53.447 27.999,62.196 C51.948,53.447 51.586,34.282 51.265,17.353 ZM26.422,41.668 C25.967,42.126 25.370,42.355 24.773,42.355 C24.176,42.355 23.579,42.126 23.123,41.668 C23.123,41.668 16.669,35.178 16.669,35.178 C15.758,34.261 15.758,32.776 16.669,31.860 C17.580,30.944 19.057,30.944 19.968,31.860 C19.968,31.860 24.773,36.691 24.773,36.691 C24.773,36.691 36.033,25.369 36.033,25.369 C36.944,24.453 38.421,24.453 39.332,25.369 C40.243,26.285 40.243,27.771 39.331,28.687 C39.331,28.687 26.422,41.668 26.422,41.668 Z" fill-rule="evenodd"/>
</svg>
