<svg xmlns="http://www.w3.org/2000/svg" preserveAspectRatio="xMidYMid" width="51" height="54" viewBox="0 0 51 54">
  <path d="M10.905,48.373 C10.404,48.943 9.380,49.409 8.629,49.409 C8.629,49.409 3.751,49.409 3.751,49.409 C3.000,49.409 2.645,48.612 3.147,48.043 C3.147,48.043 40.416,5.854 40.416,5.854 C40.919,5.286 41.944,4.809 42.694,4.795 C42.694,4.795 47.172,4.697 47.172,4.697 C48.412,4.697 48.445,5.624 47.944,6.193 C47.944,6.193 10.905,48.373 10.905,48.373 ZM12.564,24.863 C4.315,24.863 -0.000,18.610 -0.000,12.431 C-0.000,9.189 1.121,6.159 3.157,3.899 C5.455,1.348 8.708,-0.000 12.564,-0.000 C20.848,-0.000 25.182,6.253 25.182,12.431 C25.182,15.676 24.055,18.706 22.009,20.966 C19.700,23.516 16.434,24.863 12.564,24.863 ZM12.564,5.780 C7.935,5.780 5.863,9.081 5.863,12.352 C5.863,15.557 7.983,19.007 12.637,19.007 C14.680,19.007 16.378,18.306 17.547,16.980 C18.594,15.794 19.170,14.179 19.170,12.435 C19.170,9.230 17.103,5.780 12.564,5.780 ZM38.621,29.610 C46.748,29.610 51.000,35.745 51.000,41.805 C51.000,44.987 49.895,47.960 47.887,50.177 C45.622,52.678 42.418,54.000 38.621,54.000 C30.530,54.000 26.296,47.865 26.296,41.805 C26.296,38.624 27.397,35.651 29.394,33.435 C31.649,30.933 34.840,29.610 38.621,29.610 ZM38.694,48.404 C40.730,48.404 42.423,47.701 43.590,46.372 C44.636,45.181 45.212,43.560 45.212,41.809 C45.212,38.593 43.149,35.132 38.621,35.132 C36.585,35.132 34.892,35.835 33.725,37.164 C32.679,38.355 32.103,39.975 32.103,41.727 C32.103,44.941 34.166,48.404 38.694,48.404 Z" fill-rule="evenodd"/>
</svg>
