<svg xmlns="http://www.w3.org/2000/svg" preserveAspectRatio="xMidYMid" width="58" height="77" viewBox="0 0 58 77">
  <path d="M53.460,35.430 C53.460,35.430 54.368,41.519 54.368,41.519 C54.503,42.424 54.003,43.306 53.151,43.664 C53.151,43.664 48.841,45.478 48.841,45.478 C48.841,45.478 57.847,67.284 57.847,67.284 C58.132,67.976 58.007,68.768 57.521,69.340 C57.036,69.912 56.270,70.169 55.531,70.012 C55.531,70.012 45.540,67.860 45.540,67.860 C45.540,67.860 40.450,76.070 40.450,76.070 C40.077,76.670 39.419,77.031 38.716,77.031 C38.661,77.031 38.606,77.029 38.550,77.024 C37.786,76.963 37.122,76.482 36.832,75.780 C36.832,75.780 29.444,57.890 29.444,57.890 C29.444,57.890 22.054,75.781 22.054,75.781 C21.764,76.483 21.100,76.964 20.336,77.025 C20.281,77.029 20.226,77.031 20.171,77.031 C19.468,77.031 18.810,76.671 18.437,76.070 C18.437,76.070 13.348,67.860 13.348,67.860 C13.348,67.860 3.356,70.012 3.356,70.012 C2.618,70.170 1.852,69.912 1.366,69.340 C0.880,68.767 0.755,67.976 1.041,67.284 C1.041,67.284 8.906,48.239 8.906,48.239 C8.906,48.239 7.325,47.895 7.325,47.895 C6.421,47.699 5.765,46.924 5.729,46.009 C5.729,46.009 5.483,39.859 5.483,39.859 C5.483,39.859 0.723,35.898 0.723,35.898 C0.015,35.309 -0.201,34.320 0.195,33.494 C0.195,33.494 2.866,27.936 2.866,27.936 C2.866,27.936 0.511,22.241 0.511,22.241 C0.161,21.393 0.433,20.418 1.174,19.869 C1.174,19.869 6.149,16.174 6.149,16.174 C6.149,16.174 6.740,10.048 6.740,10.048 C6.828,9.137 7.527,8.399 8.440,8.252 C8.440,8.252 14.580,7.269 14.580,7.269 C14.580,7.269 17.982,2.116 17.982,2.116 C18.487,1.350 19.454,1.016 20.331,1.308 C20.331,1.308 26.229,3.260 26.229,3.260 C26.229,3.260 31.660,0.261 31.660,0.261 C32.469,-0.184 33.480,-0.034 34.120,0.626 C34.120,0.626 38.426,5.067 38.426,5.067 C38.426,5.067 44.644,4.910 44.644,4.910 C45.570,4.869 46.394,5.483 46.650,6.363 C46.650,6.363 48.377,12.275 48.377,12.275 C48.377,12.275 53.957,14.995 53.957,14.995 C54.787,15.400 55.237,16.307 55.051,17.204 C55.051,17.204 53.803,23.233 53.803,23.233 C53.803,23.233 57.467,28.206 57.467,28.206 C58.012,28.946 57.983,29.956 57.397,30.665 C57.397,30.665 53.460,35.430 53.460,35.430 ZM39.080,70.580 C39.080,70.580 42.826,64.537 42.826,64.537 C43.279,63.808 44.143,63.442 44.993,63.622 C44.993,63.622 52.617,65.265 52.617,65.265 C52.617,65.265 46.165,49.641 46.165,49.641 C46.165,49.641 45.372,51.881 45.372,51.881 C45.066,52.745 44.214,53.298 43.288,53.222 C43.288,53.222 37.088,52.723 37.088,52.723 C37.088,52.723 33.190,56.320 33.190,56.320 C33.190,56.320 39.080,70.580 39.080,70.580 ZM6.270,65.265 C6.270,65.265 13.894,63.623 13.894,63.623 C14.746,63.441 15.609,63.808 16.061,64.537 C16.061,64.537 19.807,70.581 19.807,70.581 C19.807,70.581 26.322,54.806 26.322,54.806 C26.322,54.806 24.807,53.857 24.807,53.857 C24.807,53.857 18.807,55.482 18.807,55.482 C17.914,55.724 16.969,55.339 16.508,54.546 C16.508,54.546 13.400,49.215 13.400,49.215 C13.400,49.215 12.940,49.115 12.940,49.115 C12.940,49.115 6.270,65.265 6.270,65.265 ZM49.635,23.297 C49.635,23.297 50.748,17.920 50.748,17.920 C50.748,17.920 45.771,15.494 45.771,15.494 C45.257,15.244 44.875,14.791 44.716,14.248 C44.716,14.248 43.176,8.975 43.176,8.975 C43.176,8.975 37.630,9.115 37.630,9.115 C37.038,9.140 36.506,8.906 36.110,8.497 C36.110,8.497 32.269,4.536 32.269,4.536 C32.269,4.536 27.425,7.211 27.425,7.211 C26.926,7.487 26.332,7.541 25.789,7.362 C25.789,7.362 20.528,5.620 20.528,5.620 C20.528,5.620 17.494,10.216 17.494,10.216 C17.182,10.690 16.681,11.012 16.116,11.103 C16.116,11.103 10.641,11.980 10.641,11.980 C10.641,11.980 10.113,17.444 10.113,17.444 C10.059,18.007 9.767,18.522 9.309,18.862 C9.309,18.862 4.871,22.157 4.871,22.157 C4.871,22.157 6.971,27.237 6.971,27.237 C7.188,27.761 7.172,28.351 6.926,28.863 C6.926,28.863 4.545,33.820 4.545,33.820 C4.545,33.820 8.790,37.353 8.790,37.353 C9.228,37.719 9.490,38.248 9.513,38.814 C9.513,38.814 9.733,44.299 9.733,44.299 C9.733,44.299 15.151,45.476 15.151,45.476 C15.710,45.598 16.191,45.946 16.477,46.437 C16.477,46.437 19.248,51.192 19.248,51.192 C19.248,51.192 24.599,49.742 24.599,49.742 C24.776,49.691 24.957,49.668 25.136,49.668 C25.518,49.668 25.896,49.774 26.224,49.981 C26.224,49.981 30.911,52.917 30.911,52.917 C30.911,52.917 34.968,49.174 34.968,49.174 C35.386,48.787 35.952,48.593 36.520,48.639 C36.520,48.639 42.049,49.084 42.049,49.084 C42.049,49.084 43.883,43.903 43.883,43.903 C44.071,43.369 44.480,42.938 45.007,42.717 C45.007,42.717 50.111,40.569 50.111,40.569 C50.111,40.569 49.302,35.139 49.302,35.139 C49.218,34.579 49.377,34.010 49.740,33.572 C49.740,33.572 53.251,29.321 53.251,29.321 C53.251,29.321 49.984,24.886 49.984,24.886 C49.647,24.428 49.521,23.851 49.635,23.297 ZM28.588,46.514 C18.492,46.514 10.279,38.387 10.279,28.399 C10.279,18.410 18.492,10.284 28.588,10.284 C38.683,10.284 46.896,18.410 46.896,28.399 C46.896,38.387 38.683,46.514 28.588,46.514 ZM28.588,12.968 C19.987,12.968 12.992,19.890 12.992,28.399 C12.992,36.908 19.987,43.830 28.588,43.830 C37.188,43.830 44.184,36.908 44.184,28.399 C44.184,19.890 37.188,12.968 28.588,12.968 ZM39.778,26.327 C39.778,26.327 35.327,30.620 35.327,30.620 C35.327,30.620 36.378,36.681 36.378,36.681 C36.465,37.184 36.256,37.693 35.839,37.993 C35.420,38.293 34.868,38.332 34.411,38.095 C34.411,38.095 28.909,35.233 28.909,35.233 C28.909,35.233 23.408,38.095 23.408,38.095 C23.208,38.198 22.991,38.249 22.776,38.249 C22.495,38.249 22.215,38.163 21.978,37.993 C21.561,37.693 21.352,37.184 21.439,36.681 C21.439,36.681 22.490,30.620 22.490,30.620 C22.490,30.620 18.039,26.326 18.039,26.326 C17.669,25.970 17.536,25.437 17.695,24.951 C17.855,24.465 18.279,24.111 18.791,24.038 C18.791,24.038 24.941,23.154 24.941,23.154 C24.941,23.154 27.692,17.639 27.692,17.639 C27.921,17.181 28.392,16.891 28.909,16.891 C29.425,16.891 29.896,17.182 30.125,17.639 C30.125,17.639 32.876,23.154 32.876,23.154 C32.876,23.154 39.026,24.038 39.026,24.038 C39.538,24.111 39.962,24.466 40.122,24.951 C40.281,25.437 40.148,25.970 39.778,26.327 ZM31.780,25.708 C31.338,25.644 30.956,25.370 30.758,24.973 C30.758,24.973 28.908,21.264 28.908,21.264 C28.908,21.264 27.057,24.973 27.057,24.973 C26.859,25.370 26.478,25.644 26.035,25.708 C26.035,25.708 21.900,26.302 21.900,26.302 C21.900,26.302 24.894,29.191 24.894,29.191 C25.213,29.498 25.359,29.942 25.283,30.378 C25.283,30.378 24.577,34.454 24.577,34.454 C24.577,34.454 28.277,32.530 28.277,32.530 C28.672,32.324 29.145,32.324 29.539,32.530 C29.539,32.530 33.239,34.454 33.239,34.454 C33.239,34.454 32.532,30.378 32.532,30.378 C32.458,29.942 32.603,29.498 32.922,29.190 C32.922,29.190 35.917,26.302 35.917,26.302 C35.917,26.302 31.780,25.708 31.780,25.708 Z" fill-rule="evenodd"/>
</svg>
