<svg xmlns="http://www.w3.org/2000/svg" preserveAspectRatio="xMidYMid" width="73" height="57" viewBox="0 0 73 57">
  <path d="M60.769,32.284 C60.769,32.284 71.860,55.327 71.860,55.327 C72.311,56.264 71.837,57.031 70.806,57.031 C70.806,57.031 1.228,57.031 1.228,57.031 C0.197,57.031 -0.277,56.264 0.174,55.327 C0.174,55.327 11.265,32.284 11.265,32.284 C11.441,31.917 11.915,31.618 12.318,31.618 C12.318,31.618 21.828,31.618 21.828,31.618 C22.121,31.618 22.517,31.803 22.708,32.027 C23.354,32.781 24.011,33.518 24.666,34.247 C25.288,34.939 25.914,35.641 26.535,36.359 C26.535,36.359 15.249,36.359 15.249,36.359 C14.846,36.359 14.372,36.658 14.196,37.025 C14.196,37.025 6.849,52.290 6.849,52.290 C6.849,52.290 65.184,52.290 65.184,52.290 C65.184,52.290 57.838,37.025 57.838,37.025 C57.662,36.658 57.188,36.359 56.785,36.359 C56.785,36.359 45.473,36.359 45.473,36.359 C46.094,35.641 46.720,34.939 47.342,34.247 C48.000,33.516 48.660,32.781 49.307,32.026 C49.499,31.803 49.894,31.618 50.186,31.618 C50.186,31.618 59.716,31.618 59.716,31.618 C60.119,31.618 60.593,31.917 60.769,32.284 ZM52.322,16.537 C52.322,29.128 41.958,31.489 37.084,43.589 C36.688,44.572 35.320,44.567 34.923,43.585 C30.527,32.675 21.667,29.683 19.972,19.964 C18.303,10.396 24.853,1.023 34.416,0.109 C44.142,-0.821 52.322,6.892 52.322,16.537 ZM44.622,16.537 C44.622,11.723 40.764,7.821 36.005,7.821 C31.246,7.821 27.388,11.723 27.388,16.537 C27.388,21.350 31.246,25.252 36.005,25.252 C40.764,25.252 44.622,21.350 44.622,16.537 Z" fill-rule="evenodd"/>
</svg>
