<svg xmlns="http://www.w3.org/2000/svg" preserveAspectRatio="xMidYMid" width="19" height="16" viewBox="0 0 19 16">

  <path d="M18.109,16.000 C18.109,16.000 6.828,16.000 6.828,16.000 C6.336,16.000 5.937,15.602 5.937,15.111 C5.937,15.111 5.937,11.555 5.937,11.555 C5.937,11.065 6.336,10.667 6.828,10.667 C7.320,10.667 7.719,11.065 7.719,11.555 C7.719,11.555 7.719,14.222 7.719,14.222 C7.719,14.222 17.219,14.222 17.219,14.222 C17.219,14.222 17.219,1.778 17.219,1.778 C17.219,1.778 7.719,1.778 7.719,1.778 C7.719,1.778 7.719,4.444 7.719,4.444 C7.719,4.935 7.320,5.333 6.828,5.333 C6.336,5.333 5.937,4.935 5.937,4.444 C5.937,4.444 5.937,0.889 5.937,0.889 C5.937,0.398 6.336,-0.000 6.828,-0.000 C6.828,-0.000 18.109,-0.000 18.109,-0.000 C18.601,-0.000 19.000,0.398 19.000,0.889 C19.000,0.889 19.000,15.111 19.000,15.111 C19.000,15.602 18.601,16.000 18.109,16.000 ZM10.058,5.962 C9.710,5.615 9.710,5.052 10.058,4.705 C10.405,4.358 10.969,4.358 11.317,4.705 C11.317,4.705 13.989,7.372 13.989,7.372 C13.990,7.372 13.991,7.374 13.992,7.374 C14.011,7.394 14.030,7.415 14.048,7.437 C14.057,7.447 14.064,7.458 14.072,7.469 C14.081,7.481 14.091,7.493 14.100,7.506 C14.108,7.519 14.116,7.532 14.124,7.545 C14.131,7.557 14.138,7.569 14.145,7.581 C14.152,7.594 14.158,7.608 14.164,7.621 C14.170,7.634 14.177,7.647 14.182,7.660 C14.187,7.673 14.192,7.686 14.197,7.700 C14.202,7.714 14.207,7.727 14.211,7.742 C14.215,7.755 14.218,7.769 14.222,7.782 C14.226,7.797 14.230,7.811 14.233,7.826 C14.236,7.842 14.237,7.857 14.240,7.873 C14.242,7.886 14.244,7.899 14.245,7.912 C14.248,7.941 14.250,7.970 14.250,7.999 C14.250,7.999 14.250,7.999 14.250,8.000 C14.250,8.000 14.250,8.001 14.250,8.001 C14.250,8.030 14.248,8.059 14.245,8.088 C14.244,8.101 14.242,8.114 14.240,8.127 C14.237,8.143 14.236,8.158 14.233,8.174 C14.230,8.189 14.225,8.203 14.222,8.218 C14.218,8.231 14.215,8.245 14.211,8.258 C14.207,8.272 14.202,8.286 14.196,8.301 C14.192,8.314 14.187,8.327 14.182,8.340 C14.176,8.353 14.170,8.366 14.164,8.379 C14.158,8.392 14.152,8.406 14.145,8.419 C14.138,8.431 14.130,8.443 14.123,8.456 C14.115,8.468 14.108,8.481 14.100,8.493 C14.091,8.507 14.081,8.520 14.071,8.533 C14.063,8.543 14.056,8.553 14.048,8.563 C14.029,8.586 14.010,8.608 13.989,8.628 C13.989,8.628 11.317,11.295 11.317,11.295 C11.143,11.469 10.915,11.556 10.687,11.556 C10.459,11.556 10.232,11.469 10.058,11.295 C9.710,10.948 9.710,10.385 10.058,10.038 C10.058,10.038 11.209,8.889 11.209,8.889 C11.209,8.889 0.891,8.889 0.891,8.889 C0.399,8.889 -0.000,8.491 -0.000,8.000 C-0.000,7.509 0.399,7.111 0.891,7.111 C0.891,7.111 11.209,7.111 11.209,7.111 C11.209,7.111 10.058,5.962 10.058,5.962 Z" fill-rule="evenodd"/>
</svg>
