<svg xmlns="http://www.w3.org/2000/svg" xmlns:xlink="http://www.w3.org/1999/xlink" preserveAspectRatio="xMidYMid" width="65" height="65" viewBox="0 0 65 65">
  <defs>
    <style>

      .cls-2 {
        fill: #ffffff;
      }
    </style>
  </defs>
  <path d="M60.642,16.252 C51.670,0.709 31.793,-4.616 16.252,4.359 C0.709,13.331 -4.617,33.206 4.358,48.748 C13.330,64.290 33.205,69.617 48.747,60.642 C64.290,51.668 69.618,31.794 60.642,16.252 ZM45.498,55.013 C33.066,62.192 17.165,57.932 9.986,45.498 C2.806,33.065 7.068,17.164 19.501,9.987 C31.934,2.807 47.835,7.068 55.013,19.502 C62.192,31.936 57.931,47.834 45.498,55.013 ZM44.200,31.180 C44.200,31.180 27.182,21.255 27.182,21.255 C25.632,20.350 24.381,21.074 24.389,22.868 C24.389,22.868 24.477,42.566 24.477,42.566 C24.485,44.359 25.751,45.089 27.306,44.191 C27.306,44.191 44.193,34.442 44.193,34.442 C45.745,33.546 45.748,32.085 44.200,31.180 Z" id="path-1" class="cls-2" fill-rule="evenodd"/>
</svg>
